<?xml version="1.0" encoding="UTF-8"?>
<svg id="Capa_1" data-name="Capa 1" xmlns="http://www.w3.org/2000/svg" viewBox="0 0 523.33 523.33">
  <defs>
    <style>
      .cls-1 {
        fill: #1d1d1b;
      }
    </style>
  </defs>
  <path class="cls-1" d="M523.33,165.96v255.81c0,28.05-11.36,53.44-29.73,71.83-4.16,4.16-8.68,7.95-13.51,11.34-25.48,17.88-60.18,14.67-82.2-7.34l-224.1-224.1c-4.9-4.9-11.32-7.35-17.74-7.35s-12.85,2.45-17.74,7.35c-9.8,9.8-9.8,25.69,0,35.49l104.53,104.53c12.06,12.06,18.84,28.43,18.84,45.49h0c0,35.53-28.8,64.33-64.33,64.33h-31.41C74.3,523.33,0,449.03,0,357.37V101.56c0-28.05,11.36-53.44,29.73-71.83,4.16-4.16,8.68-7.95,13.51-11.34C68.72.51,103.42,3.72,125.43,25.73l224.1,224.1c4.9,4.9,11.32,7.35,17.74,7.35s12.85-2.45,17.74-7.35c9.8-9.8,9.8-25.69,0-35.49l-104.53-104.53c-12.06-12.06-18.84-28.43-18.84-45.49h0c0-35.53,28.8-64.33,64.33-64.33h31.41c91.66,0,165.96,74.3,165.96,165.96Z"/>
</svg>